<svg id="visual" viewBox="0 0 900 600" width="900" height="600" xmlns="http://www.w3.org/2000/svg" xmlns:xlink="http://www.w3.org/1999/xlink" version="1.1"><rect x="0" y="0" width="900" height="600" fill="#002233"></rect><path d="M0 496L21.5 499.7C43 503.3 86 510.7 128.8 495.7C171.7 480.7 214.3 443.3 257.2 437C300 430.7 343 455.3 385.8 462.2C428.7 469 471.3 458 514.2 460.2C557 462.3 600 477.7 642.8 467.5C685.7 457.3 728.3 421.7 771.2 409.3C814 397 857 408 878.5 413.5L900 419L900 601L878.5 601C857 601 814 601 771.2 601C728.3 601 685.7 601 642.8 601C600 601 557 601 514.2 601C471.3 601 428.7 601 385.8 601C343 601 300 601 257.2 601C214.3 601 171.7 601 128.8 601C86 601 43 601 21.5 601L0 601Z" fill="#0066FF" stroke-linecap="round" stroke-linejoin="miter"></path></svg>